<svg width="350" height="350" viewBox="0 0 350 350" version="1.1" xmlns="http://www.w3.org/2000/svg" xmlns:xlink="http://www.w3.org/1999/xlink">
<title>facebook</title>
<desc>Created using Figma</desc>
<g id="Canvas" transform="translate(-1249 -2508)">
<g id="facebook">
<use xlink:href="#path0_fill" transform="translate(1249 2508)" fill="#FCFCFC"/>
</g>
</g>
<defs>
<path id="path0_fill" fill-rule="evenodd" d="M 150.296 270.2L 189.636 270.2L 189.636 174.988L 215.88 174.988L 219.357 142.182L 189.636 142.182L 189.677 125.755C 189.677 117.203 190.493 112.613 202.767 112.613L 219.17 112.613L 219.17 79.8L 192.92 79.8C 161.391 79.8 150.296 95.7192 150.296 122.482L 150.296 142.182L 130.643 142.182L 130.643 174.994L 150.296 174.994L 150.296 270.2L 150.296 270.2ZM 175 350C 78.3533 350 0 271.647 0 175C 0 78.3475 78.3533 0 175 0C 271.647 0 350 78.3475 350 175C 350 271.647 271.647 350 175 350Z"/>
</defs>
</svg>
