<svg width="350" height="350" viewBox="0 0 350 350" version="1.1" xmlns="http://www.w3.org/2000/svg" xmlns:xlink="http://www.w3.org/1999/xlink">
<title>instagram</title>
<desc>Created using Figma</desc>
<g id="Canvas" transform="translate(715 -3328)">
<g id="instagram">
<use xlink:href="#path0_fill" transform="translate(-715 3328)" fill="#FCFCFC"/>
<use xlink:href="#path1_fill" transform="translate(-715 3328)" fill="#FCFCFC"/>
<use xlink:href="#path2_fill" transform="translate(-715 3328)" fill="#FCFCFC"/>
<use xlink:href="#path3_fill" transform="translate(-715 3328)" fill="#FCFCFC"/>
</g>
</g>
<defs>
<path id="path0_fill" d="M 247.241 136.693L 247.241 104.45L 214.997 104.563L 215.104 136.8L 247.241 136.693Z"/>
<path id="path1_fill" d="M 174.133 211.145C 192.597 211.145 207.628 196.129 207.628 177.665C 207.628 170.38 205.254 163.629 201.282 158.135C 195.205 149.706 185.305 144.17 174.133 144.17C 162.961 144.17 153.076 149.706 146.985 158.135C 143.012 163.629 140.653 170.38 140.653 177.665C 140.653 196.129 155.67 211.145 174.133 211.145Z"/>
<path id="path2_fill" d="M 175.007 0C 78.3534 0 0 78.3392 0 174.993C 0 271.647 78.3534 350 175.007 350C 271.647 350 350 271.647 350 174.993C 350 78.3392 271.639 0 175.007 0ZM 269.266 236.034C 269.266 256.303 252.764 272.791 232.495 272.791L 115.764 272.791C 95.4881 272.791 79.0002 256.303 79.0002 236.034L 79.0002 119.303C 79.0002 99.0274 95.4881 82.5394 115.764 82.5394L 232.495 82.5394C 252.764 82.5394 269.266 99.0274 269.266 119.303L 269.266 236.034Z"/>
<path id="path3_fill" d="M 226.155 177.666C 226.155 206.342 202.823 229.688 174.133 229.688C 145.442 229.688 122.125 206.342 122.125 177.666C 122.125 170.751 123.496 164.177 125.941 158.136L 97.542 158.136L 97.542 236.035C 97.542 246.084 105.715 254.257 115.764 254.257L 232.495 254.257C 242.544 254.257 250.717 246.084 250.717 236.035L 250.717 158.136L 222.303 158.136C 224.769 164.177 226.155 170.758 226.155 177.666Z"/>
</defs>
</svg>
