<svg width="350" height="350" viewBox="0 0 350 350" version="1.1" xmlns="http://www.w3.org/2000/svg" xmlns:xlink="http://www.w3.org/1999/xlink">
<title>Slack</title>
<desc>Created using Figma</desc>
<g id="Canvas" transform="translate(-183 -2530)">
<g id="Slack">
<use xlink:href="#path0_fill" transform="translate(183 2530)" fill="#FCFCFC"/>
<use xlink:href="#path1_fill" transform="translate(183 2530)" fill="#FCFCFC"/>
</g>
</g>
<defs>
<path id="path0_fill" d="M 149.241 162.095L 161.933 199.804L 200.437 186.845L 187.745 149.135L 149.241 162.095Z"/>
<path id="path1_fill" d="M 175.003 0C 78.3549 0 0 78.3421 0 174.993C 0 271.644 78.3549 350 175.003 350C 271.645 350 350 271.644 350 174.993C 350 78.3421 271.646 0 175.003 0ZM 263.828 202.702L 245.102 209.005L 251.542 228.14C 254.65 237.374 249.684 247.379 240.451 250.486C 231.217 253.594 221.213 248.628 218.105 239.395L 211.665 220.259L 173.163 233.218L 179.677 252.574C 182.785 261.808 177.819 271.813 168.586 274.921C 159.352 278.029 149.348 273.063 146.24 263.829L 139.725 244.473L 121.86 250.486C 112.626 253.594 102.622 248.627 99.5138 239.394C 96.406 230.16 101.371 220.156 110.605 217.048L 128.471 211.035L 115.78 173.327L 97.4258 179.504C 88.192 182.612 78.1879 177.647 75.0801 168.413C 71.9723 159.179 76.9385 149.174 86.1716 146.066L 104.525 139.889L 98.457 121.858C 95.3492 112.625 100.315 102.62 109.549 99.5127C 118.782 96.4049 128.787 101.371 131.894 110.605L 137.963 128.635L 176.465 115.675L 170.322 97.424C 167.214 88.1901 172.18 78.1857 181.414 75.0779C 190.647 71.97 200.651 76.9363 203.759 86.1696L 209.902 104.421L 228.14 98.2826C 237.374 95.1747 247.378 100.14 250.486 109.374C 253.593 118.608 248.628 128.613 239.394 131.72L 221.157 137.859L 233.848 175.567L 252.573 169.264C 261.807 166.156 271.811 171.122 274.919 180.356C 278.027 189.59 273.062 199.594 263.828 202.702Z"/>
</defs>
</svg>
