<svg width="437" height="437" viewBox="0 0 437 437" version="1.1" xmlns="http://www.w3.org/2000/svg" xmlns:xlink="http://www.w3.org/1999/xlink">
<title>Slack_Mark_Monochrome_White</title>
<desc>Created using Figma</desc>
<g id="Canvas" transform="translate(-681 -3284)">
<g id="Slack_Mark_Monochrome_White">
<g id="Layer 2">
<g id="Group">
<g id="Vector">
<use xlink:href="#path0_fill" transform="matrix(0.9482 -0.3176 0.3176 0.9482 860.912 3484.44)" fill="#FCFCFC"/>
</g>
<g id="Group">
<g id="Vector">
<use xlink:href="#path0_fill" transform="matrix(0.9482 -0.3176 0.3176 0.9482 860.912 3484.44)" fill="#FCFCFC"/>
</g>
<g id="Vector">
<use xlink:href="#path1_fill" transform="translate(681 3284)" fill="#FCFCFC"/>
</g>
</g>
</g>
</g>
</g>
</g>
<defs>
<path id="path0_fill" d="M 61.4871 1.06616e-05L 0 1.06616e-05L 0 59.391L 61.4871 59.391L 61.4871 1.06616e-05Z"/>
<path id="path1_fill" d="M 418.683 158.41C 373.615 8.18607 308.635 -26.7498 158.41 18.3175C 8.18607 63.3847 -26.7498 128.365 18.3175 278.59C 63.3847 428.814 128.365 463.75 278.59 418.683C 428.814 373.615 463.75 308.635 418.683 158.41ZM 342.872 255.881L 314.574 265.314L 324.356 294.66C 328.199 306.538 321.91 319.465 310.032 323.308C 307.586 324.006 304.792 324.705 302.346 324.356C 293.263 324.006 284.529 318.067 281.385 308.984L 271.603 279.638L 213.26 299.202L 223.042 328.548C 226.885 340.426 220.596 353.352 208.718 357.195C 206.272 357.894 203.478 358.593 201.032 358.243C 191.949 357.894 183.215 351.955 180.071 342.872L 170.289 313.526L 141.99 322.958C 139.545 323.657 136.75 324.356 134.305 324.006C 125.221 323.657 116.487 317.718 113.343 308.635C 109.5 296.756 115.789 283.83 127.667 279.987L 155.965 270.554L 137.099 214.308L 108.801 223.74C 106.356 224.439 103.561 225.138 101.115 224.788C 92.0321 224.439 83.2982 218.5 80.1539 209.417C 76.311 197.538 82.5995 184.612 94.4777 180.769L 122.776 171.337L 112.994 141.99C 109.151 130.112 115.439 117.186 127.317 113.343C 139.196 109.5 152.122 115.789 155.965 127.667L 165.747 157.013L 224.09 137.449L 214.308 108.103C 210.465 96.2245 216.753 83.2982 228.631 79.4552C 240.51 75.6123 253.436 81.9008 257.279 93.7789L 267.061 123.125L 295.359 113.692C 307.237 109.849 320.163 116.138 324.006 128.016C 327.849 139.894 321.561 152.821 309.683 156.664L 281.385 166.096L 300.25 222.343L 328.548 212.91C 340.426 209.067 353.352 215.356 357.195 227.234C 361.038 239.112 354.75 252.038 342.872 255.881Z"/>
</defs>
</svg>
